<?xml version="1.0" encoding="UTF-8" standalone="no"?>
<svg
   xmlns:dc="http://purl.org/dc/elements/1.1/"
   xmlns:cc="http://creativecommons.org/ns#"
   xmlns:rdf="http://www.w3.org/1999/02/22-rdf-syntax-ns#"
   xmlns:svg="http://www.w3.org/2000/svg"
   xmlns="http://www.w3.org/2000/svg"
   xmlns:sodipodi="http://sodipodi.sourceforge.net/DTD/sodipodi-0.dtd"
   xmlns:inkscape="http://www.inkscape.org/namespaces/inkscape"
   width="1380"
   height="1080"
   viewBox="0 0 365.12501 285.74999"
   version="1.1"
   id="SVGRoot"
   sodipodi:docname="BIRT-Get-Started-01.svg"
   inkscape:version="1.0.1 (3bc2e813f5, 2020-09-07)">
  <defs
     id="defs1757">
    <rect
       x="209.77679"
       y="96.005952"
       width="60.970654"
       height="19.307638"
       id="rect2378" />
  </defs>
  <sodipodi:namedview
     id="base"
     pagecolor="#ffffff"
     bordercolor="#666666"
     borderopacity="1.0"
     inkscape:pageopacity="0.0"
     inkscape:pageshadow="2"
     inkscape:zoom="0.7"
     inkscape:cx="1208.52"
     inkscape:cy="745.72253"
     inkscape:document-units="mm"
     inkscape:current-layer="layer1"
     inkscape:document-rotation="0"
     showgrid="false"
     inkscape:window-width="3840"
     inkscape:window-height="2050"
     inkscape:window-x="-12"
     inkscape:window-y="-12"
     inkscape:window-maximized="1"
     units="px"
     width="1560px" />
  <metadata
     id="metadata1760">
    <rdf:RDF>
      <cc:Work
         rdf:about="">
        <dc:format>image/svg+xml</dc:format>
        <dc:type
           rdf:resource="http://purl.org/dc/dcmitype/StillImage" />
        <dc:title></dc:title>
      </cc:Work>
    </rdf:RDF>
  </metadata>
  <g
     inkscape:label="Ebene 1"
     inkscape:groupmode="layer"
     id="layer1">
    <path
       id="path1"
       fill="#cccccc"
       fill-rule="evenodd"
       stroke="none"
       d="m 738.86786,198.55089 c 0.8599,-1.41023 1.56633,-2.11667 2.11667,-2.11667 v 0.52917 c -1.05834,0.88106 -1.5875,1.5875 -1.5875,2.11667 h -0.52917 z"
       style="stroke-width:0.264583" />
    <path
       id="path2"
       fill="#000000"
       fill-rule="evenodd"
       stroke="none"
       d="M 828.29703,439.45401 Z"
       style="stroke-width:0.264583" />
    <path
       id="path2345"
       fill="#000000"
       fill-rule="evenodd"
       stroke="none"
       d="m 224.08707,4.0443441 c -2.34421,0 -7.82027,1.24108 -16.42444,3.72138 -8.71243,3.7213789 -13.44006,5.5820689 -14.18475,5.5820689 h -10.82521 c -4.68843,2.232828 -8.54631,3.349241 -11.57177,3.349241 -3.48459,1.871854 -5.22596,3.609738 -5.22596,5.209931 -1.74136,2.716608 -2.61298,4.329825 -2.61298,4.837794 0.49833,3.473907 1.11985,5.209931 1.86642,5.209931 h 0.37328 l 2.2397,-0.372138 c 1.31395,-1.736024 2.55885,-2.604965 3.73282,-2.604965 v 1.860689 c 0,1.24108 0.37329,1.985356 1.11985,2.232828 h 1.49314 c 0.12504,0 0.87161,-0.61961 2.23969,-1.86069 h 4.85268 v 0.372138 c -1.24489,0.07071 -1.86642,0.442844 -1.86642,1.116413 -4.14344,2.100719 -6.50631,4.210741 -7.09237,6.326346 l 0.74657,1.116411 c 2.73803,0 4.10611,-0.372133 4.10611,-1.116411 2.98626,-0.496804 4.47939,-0.991748 4.47939,-1.488552 4.38421,-1.311787 8.61537,-4.536362 12.69162,-9.675586 4.61378,-1.736024 11.58111,-3.349242 20.90384,-4.837794 h 24.2634 c 1.86641,1.427149 3.73282,3.410644 5.59924,5.954208 0,1.896042 1.86641,5.617421 5.59925,11.164135 3.74775,4.57172 6.23755,7.79816 7.46565,9.675592 v 0.744273 l -5.97253,6.32635 c -2.30689,0.991748 -4.79668,2.729633 -7.46565,5.209929 -4.27783,1.875575 -7.38727,3.61346 -9.33208,5.209929 -4.51485,2.565895 -11.73041,8.147964 -21.6504,16.746207 -2.61112,0.733113 -7.34062,4.454495 -14.18476,11.16414 -5.80828,4.301917 -12.40232,8.395438 -19.78399,12.280558 -3.4846,0.42238 -5.22596,0.91918 -5.22596,1.48855 -4.06879,0.56007 -9.41979,3.78464 -16.05117,9.67559 -3.73656,2.91942 -7.59444,9.36857 -11.57177,19.35117 -4.67163,2.30912 -9.02598,5.16155 -13.0649,8.55917 -4.13411,2.04118 -11.22648,8.61686 -21.27713,19.72332 -1.74883,0.8373 -3.367,1.82905 -4.85268,2.9771 l -4.10611,2.23282 c -4.292749,1.05502 -7.153959,2.04677 -8.585499,2.97711 -0.56739,0 -4.30022,1.61322 -11.19849,4.83779 -3.9568,0.74427 -8.68443,2.60497 -14.18475,5.58207 -22.714267,22.34502 -36.029272,34.00597 -39.941273,34.98097 -9.160362,0 -15.257941,1.48855 -18.290865,4.46566 -1.244898,0 -1.8664121,1.36388 -1.8664121,4.09351 v 2.60497 l 1.4931271,11.53627 v 0.74428 l -1.4931271,10.792 v 0.74427 c 0,1.60578 0.248229,3.3418 0.7465631,5.20994 -0.2482361,0 -0.3732851,0.12466 -0.3732851,0.37213 1.0918511,4.46566 1.8384221,6.69848 2.2396981,6.69848 2.314358,6.69849 4.055722,10.04773 5.225965,10.04773 l -0.373285,2.60497 0.373285,0.74427 c 0.882808,0.74428 4.117305,1.73603 9.705354,2.97711 0.746563,-0.38703 1.119848,-0.75916 1.119848,-1.11642 -0.606587,-0.99174 -1.104915,-1.48855 -1.493134,-1.48855 l 0.373286,-2.60497 c -1.244898,-2.38726 -1.866413,-4.86942 -1.866413,-7.44275 v -2.97711 l 2.986261,-6.69848 c 0.940673,-3.65626 1.812286,-5.76442 2.612983,-6.32635 0.882808,-4.21818 2.250893,-6.32634 4.10611,-6.32634 h 2.612983 c 0.498327,0 0.746563,-0.24748 0.746563,-0.74427 v -1.11642 c -1.244898,-1.49599 -1.866412,-2.36494 -1.866412,-2.60497 1.233696,-5.30854 7.952788,-11.88236 20.15728,-19.7233 2.13144,-1.48856 3.49952,-2.23283 4.10611,-2.23283 3.77202,-2.4803 5.88667,-3.72138 6.3458,-3.72138 0.57859,0 3.81496,-1.98536 9.70536,-5.95421 4.22743,-1.63182 8.08344,-4.11213 11.57178,-7.44276 5.22222,-2.70916 7.8352,-4.19772 7.83894,-4.46566 3.981059,-1.08106 5.972519,-1.82533 5.972519,-2.23282 10.18689,-1.98536 15.53604,-3.34925 16.05117,-4.09352 3.44726,-2.66823 8.79828,-4.90106 16.05117,-6.69848 l 12.31833,-4.09352 c 5.05798,-2.4803 7.92106,-3.72138 8.58551,-3.72138 9.0801,-5.4574 13.93278,-8.18704 14.55803,-8.18704 8.26822,-6.35611 14.61402,-9.58069 19.03743,-9.67558 h 1.11985 c 6.02105,2.85057 11.99357,4.83593 17.91758,5.9542 13.82266,1.8179 22.40817,3.55392 25.75652,5.20994 7.96399,2.45053 11.94505,4.31121 11.94505,5.58207 -3.451,4.71312 -5.81574,7.07061 -7.09237,7.07061 -3.4678,3.2804 -6.57912,8.98528 -9.33208,17.11835 -2.48793,7.89677 -5.351,13.60164 -8.5855,17.11835 -3.04973,6.35797 -7.52912,13.55326 -13.43819,21.584 -0.7783,2.23282 -2.51966,3.34924 -5.22596,3.34924 -1.74136,3.50368 -2.61298,5.48903 -2.61298,5.95421 v 10.04772 c 0.7783,1.44948 1.64805,2.69056 2.61298,3.72138 6.47086,0.30887 9.70536,0.80382 9.70536,1.48855 6.28795,0 12.63376,1.61322 19.03743,4.8378 3.2345,0.6438 4.85267,1.2634 4.85267,1.86068 7.6635,-0.24746 13.3878,-0.74427 17.17102,-1.48854 4.97773,-0.55077 7.46565,-2.65893 7.46565,-6.32635 0,-2.9771 -1.99146,-4.46566 -5.97252,-4.46566 h -5.97253 c -2.2005,-1.69695 -5.56005,-3.92978 -10.07864,-6.69848 -4.42526,-3.99304 -6.9132,-6.84548 -7.46565,-8.55917 v -0.74428 c 0,-0.41866 0.24823,-0.66612 0.74656,-0.74428 l -0.74656,-2.9771 c 4.38233,-7.09853 7.99198,-12.1838 10.8252,-15.25765 17.06836,-16.78901 26.02715,-27.0842 26.87637,-30.88746 l 8.21223,-10.79199 c 4.23116,-4.21818 6.3458,-8.31171 6.3458,-12.28056 0,-3.22457 -1.11984,-5.95421 -3.35954,-8.18703 -11.16116,-10.63198 -16.7604,-16.08939 -16.79773,-16.37407 -3.08892,-2.80778 -7.32008,-5.66208 -12.69163,-8.55917 -9.95358,-5.14109 -14.93131,-7.87072 -14.93131,-8.18704 v -0.37214 c 9.45712,-4.46565 21.40218,-9.30344 35.83516,-14.51338 v 13.76911 c -0.9948,3.24876 -1.49313,4.98479 -1.49313,5.20993 v 5.95421 c 0,0.24747 0.12505,0.37214 0.37328,0.37214 2.5122,5.4574 5.12517,8.18703 7.83895,8.18703 2.48419,-0.57682 3.85414,-1.19828 4.10611,-1.86069 5.06731,0 11.41312,-1.98535 19.03742,-5.95421 7.4302,-3.27109 13.40273,-6.62033 17.91758,-10.04772 3.56299,-0.74428 7.17264,-2.10816 10.82521,-4.09352 7.96399,-5.47973 11.94505,-9.20111 11.94505,-11.16414 0,-0.41865 -0.24823,-0.66612 -0.74657,-0.74427 h -0.74656 c -0.65324,0 -2.14638,0.74427 -4.4794,2.23283 v -0.74428 l 5.59925,-4.83779 v -0.74428 c 0,-1.39179 -0.62152,-2.26073 -1.86641,-2.60496 0,-0.43354 0.24823,-1.05501 0.74656,-1.8607 -0.34156,-1.73602 -0.83989,-2.60496 -1.49313,-2.60496 h -3.73283 c 0.49833,-0.61961 0.74656,-0.99175 0.74656,-1.11641 0,-1.349 -0.62151,-2.34075 -1.86641,-2.977113 h -1.86642 l -4.10611,4.093523 c 0,-3.2376 -0.49833,-4.973629 -1.49313,-5.209936 h -1.11985 c -0.24823,0 -0.37328,0.124665 -0.37328,0.37214 -0.76336,3.780926 -3.00306,7.997246 -6.71909,12.652696 -0.68497,4.27958 -1.30649,6.51241 -1.86642,6.69848 -9.319,4.21818 -16.41138,6.32635 -21.27713,6.32635 h -1.49312 l -0.74657,-0.37214 c 2.93214,-5.61556 4.79855,-10.45336 5.59924,-14.51338 3.4846,-4.61265 5.22597,-9.32578 5.22597,-14.141248 v -6.698484 l -0.37329,-3.721382 c 1.11612,-3.968849 2.85748,-5.954202 5.22596,-5.954202 h 0.74657 c 0.83242,0 1.70403,0.372133 2.61298,1.116413 2.2173,2.480296 4.45699,3.721375 6.71909,3.721375 0.43487,-0.247467 0.93321,-0.372133 1.49313,-0.372133 2.41888,-1.98536 4.03706,-2.977108 4.85268,-2.977108 h 3.35955 c 2.46367,-3.473907 3.95679,-5.209929 4.47939,-5.209929 l 1.86642,0.37214 c 1.74136,-0.429821 2.61298,-1.546235 2.61298,-3.349241 v -5.209936 c 0,-0.558207 0.12505,-1.055006 0.37328,-1.488547 3.23449,-2.72033 4.85268,-4.830356 4.85268,-6.32635 l -0.37329,-0.744274 c 0.17171,0 0.66818,-0.619608 1.49314,-1.860687 l 1.11984,0.744273 h 1.11985 c 0,-1.162927 0.24824,-2.031873 0.74657,-2.604968 v -8.18703 c 0,-0.526574 -0.37328,-1.767654 -1.11985,-3.721382 -3.58165,-12.652692 -11.79387,-18.979037 -24.63667,-18.979037 -2.67458,0 -6.78069,0.991747 -12.31834,2.977103 -4.94226,2.601245 -8.42686,7.439038 -10.45192,14.51338 -0.55992,6.201684 -1.30649,9.303451 -2.23969,9.303451 h -0.37329 c -0.64578,0 -1.51553,-2.232827 -2.61298,-6.698483 -4.23303,-5.954209 -8.21409,-8.931313 -11.94505,-8.931313 -8.1693,-7.647434 -16.00824,-14.967388 -23.51683,-21.956138 L 244.99092,4.0443441 Z"
       style="stroke-width:0.186355;fill:#f4a522;fill-opacity:1" />
    <path
       id="path2347"
       fill="#cccccc"
       fill-rule="evenodd"
       stroke="none"
       d="m 738.86786,198.55089 c 0.8599,-1.41023 1.56633,-2.11667 2.11667,-2.11667 v 0.52917 c -1.05834,0.88106 -1.5875,1.5875 -1.5875,2.11667 h -0.52917 z"
       style="stroke-width:0.264583" />
    <path
       id="path2349"
       fill="#000000"
       fill-rule="evenodd"
       stroke="none"
       d="M 828.29703,439.45401 Z"
       style="stroke-width:0.264583" />
    <text
       xml:space="preserve"
       id="text2376"
       style="font-size:10.5833px;line-height:1.25;font-family:'Prestige Elite Std';-inkscape-font-specification:'Prestige Elite Std';white-space:pre;shape-inside:url(#rect2378);fill:#ffffff;fill-opacity:1;"
       transform="matrix(2.9048335,1.8832719,-1.8809283,2.9012187,-181.26315,-609.52325)"><tspan
         x="209.77734"
         y="104.27142"><tspan
           style="fill:#ffffff;fill-opacity:1">#1</tspan></tspan></text>
  </g>
</svg>
