<?xml version="1.0" encoding="UTF-8" standalone="no"?>
<svg
   xmlns:dc="http://purl.org/dc/elements/1.1/"
   xmlns:cc="http://creativecommons.org/ns#"
   xmlns:rdf="http://www.w3.org/1999/02/22-rdf-syntax-ns#"
   xmlns:svg="http://www.w3.org/2000/svg"
   xmlns="http://www.w3.org/2000/svg"
   xmlns:sodipodi="http://sodipodi.sourceforge.net/DTD/sodipodi-0.dtd"
   xmlns:inkscape="http://www.inkscape.org/namespaces/inkscape"
   id="ac356da0-b129-4ca5-aecc-4700531dd101"
   data-name="Layer 1"
   width="1129"
   height="663"
   viewBox="0 0 1129 663"
   version="1.1"
   sodipodi:docname="documentation.svg"
   inkscape:version="1.0.1 (3bc2e813f5, 2020-09-07)">
  <metadata
     id="metadata83">
    <rdf:RDF>
      <cc:Work
         rdf:about="">
        <dc:format>image/svg+xml</dc:format>
        <dc:type
           rdf:resource="http://purl.org/dc/dcmitype/StillImage" />
        <dc:title>docu_tree</dc:title>
      </cc:Work>
    </rdf:RDF>
  </metadata>
  <defs
     id="defs81">
    <rect
       x="231.57028"
       y="302.18023"
       width="650.67451"
       height="194.36718"
       id="rect910" />
  </defs>
  <sodipodi:namedview
     pagecolor="#ffffff"
     bordercolor="#666666"
     borderopacity="1"
     objecttolerance="10"
     gridtolerance="10"
     guidetolerance="10"
     inkscape:pageopacity="0"
     inkscape:pageshadow="2"
     inkscape:window-width="3840"
     inkscape:window-height="2050"
     id="namedview79"
     showgrid="false"
     inkscape:zoom="1.3170948"
     inkscape:cx="564.5"
     inkscape:cy="331.5"
     inkscape:window-x="-12"
     inkscape:window-y="-12"
     inkscape:window-maximized="1"
     inkscape:current-layer="ac356da0-b129-4ca5-aecc-4700531dd101" />
  <title
     id="title2">docu_tree</title>
  <circle
     cx="321"
     cy="321"
     r="321"
     fill="#f2f2f2"
     id="circle4" />
  <ellipse
     cx="559"
     cy="635.49998"
     rx="514"
     ry="27.50002"
     fill="#3f3d56"
     id="ellipse6" />
  <ellipse
     cx="558"
     cy="627"
     rx="460"
     ry="22"
     opacity="0.2"
     id="ellipse8" />
  <rect
     x="131"
     y="152.5"
     width="840"
     height="50"
     fill="#3f3d56"
     id="rect10" />
  <path
     d="M166.5,727.3299A21.67009,21.67009,0,0,0,188.1701,749H984.8299A21.67009,21.67009,0,0,0,1006.5,727.3299V296h-840Z"
     transform="translate(-35.5 -118.5)"
     fill="#3f3d56"
     id="path12" />
  <path
     d="M984.8299,236H188.1701A21.67009,21.67009,0,0,0,166.5,257.6701V296h840V257.6701A21.67009,21.67009,0,0,0,984.8299,236Z"
     transform="translate(-35.5 -118.5)"
     fill="#3f3d56"
     id="path14" />
  <path
     d="M984.8299,236H188.1701A21.67009,21.67009,0,0,0,166.5,257.6701V296h840V257.6701A21.67009,21.67009,0,0,0,984.8299,236Z"
     transform="translate(-35.5 -118.5)"
     opacity="0.2"
     id="path16" />
  <circle
     cx="181"
     cy="147.5"
     r="13"
     fill="#3f3d56"
     id="circle18" />
  <circle
     cx="217"
     cy="147.5"
     r="13"
     fill="#3f3d56"
     id="circle20" />
  <circle
     cx="253"
     cy="147.5"
     r="13"
     fill="#3f3d56"
     id="circle22" />
  <rect
     x="168"
     y="213.5"
     width="772.80768"
     height="386"
     rx="12.234325"
     fill="#606060"
     id="rect24"
     style="stroke-width:1.51433" />
  <rect
     x="841.46338"
     y="555.53699"
     width="88"
     height="26"
     rx="7.0275602"
     fill="#3ecc5f"
     id="rect36" />
  <path
     d="M981.6885,395.8592a91.01343,91.01343,0,0,0,19.56129,56.51431,91.40575,91.40575,0,1,0,143.68892,0C1157.18982,436.82067,981.6885,385.60008,981.6885,395.8592Z"
     transform="translate(-35.5 -118.5)"
     opacity="0.1"
     id="path46" />
  <text
     xml:space="preserve"
     id="text908"
     style="font-size:40px;line-height:1.25;font-family:'Prestige Elite Std';-inkscape-font-specification:'Prestige Elite Std';white-space:pre;shape-inside:url(#rect910);" />
  <text
     xml:space="preserve"
     style="font-size:275.228px;line-height:1.25;font-family:'Prestige Elite Std';-inkscape-font-specification:'Prestige Elite Std';fill:#fffff6;fill-opacity:1;stroke-width:1.43348"
     x="215.80368"
     y="489.23941"
     id="text916"
     transform="scale(0.99393404,1.006103)"><tspan
       sodipodi:role="line"
       id="tspan914"
       x="215.80368"
       y="489.23941"
       style="font-style:normal;font-variant:normal;font-weight:normal;font-stretch:normal;font-size:275.228px;font-family:sans-serif;-inkscape-font-specification:sans-serif;fill:#fffff6;fill-opacity:1;stroke-width:1.43348">Docs</tspan></text>
</svg>
